<mxfile host="app.diagrams.net" modified="2024-05-11T16:03:05.982Z" agent="Mozilla/5.0 (Windows NT 10.0; Win64; x64) AppleWebKit/537.36 (KHTML, like Gecko) Chrome/124.0.0.0 Safari/537.36" etag="8pReka3c32JK9D_tSSxn" version="24.4.0" type="github">
  <diagram id="C5RBs43oDa-KdzZeNtuy" name="Page-1">
    <mxGraphModel dx="1994" dy="708" grid="0" gridSize="10" guides="1" tooltips="1" connect="1" arrows="1" fold="1" page="0" pageScale="1" pageWidth="827" pageHeight="1169" background="none" math="0" shadow="1">
      <root>
        <mxCell id="WIyWlLk6GJQsqaUBKTNV-0" />
        <mxCell id="WIyWlLk6GJQsqaUBKTNV-1" parent="WIyWlLk6GJQsqaUBKTNV-0" />
        <mxCell id="lKxWZtJTGhWXBgw8AvNS-2" value="" style="edgeStyle=orthogonalEdgeStyle;rounded=1;orthogonalLoop=1;jettySize=auto;html=1;" parent="WIyWlLk6GJQsqaUBKTNV-1" source="lKxWZtJTGhWXBgw8AvNS-0" target="lKxWZtJTGhWXBgw8AvNS-1" edge="1">
          <mxGeometry relative="1" as="geometry" />
        </mxCell>
        <mxCell id="lKxWZtJTGhWXBgw8AvNS-13" value="" style="edgeStyle=orthogonalEdgeStyle;rounded=1;orthogonalLoop=1;jettySize=auto;html=1;" parent="WIyWlLk6GJQsqaUBKTNV-1" source="lKxWZtJTGhWXBgw8AvNS-0" target="lKxWZtJTGhWXBgw8AvNS-12" edge="1">
          <mxGeometry relative="1" as="geometry" />
        </mxCell>
        <mxCell id="lKxWZtJTGhWXBgw8AvNS-0" value="Login&amp;nbsp;" style="rounded=1;whiteSpace=wrap;html=1;fillColor=#f8cecc;strokeColor=#b85450;" parent="WIyWlLk6GJQsqaUBKTNV-1" vertex="1">
          <mxGeometry x="-110" y="101" width="120" height="58" as="geometry" />
        </mxCell>
        <mxCell id="lKxWZtJTGhWXBgw8AvNS-46" style="edgeStyle=orthogonalEdgeStyle;rounded=1;orthogonalLoop=1;jettySize=auto;html=1;entryX=0.5;entryY=0;entryDx=0;entryDy=0;" parent="WIyWlLk6GJQsqaUBKTNV-1" source="lKxWZtJTGhWXBgw8AvNS-1" target="lKxWZtJTGhWXBgw8AvNS-0" edge="1">
          <mxGeometry relative="1" as="geometry">
            <Array as="points">
              <mxPoint x="126" y="81" />
              <mxPoint x="-50" y="81" />
            </Array>
          </mxGeometry>
        </mxCell>
        <mxCell id="lKxWZtJTGhWXBgw8AvNS-1" value="Registration" style="whiteSpace=wrap;html=1;rounded=1;fillColor=#f8cecc;strokeColor=#b85450;" parent="WIyWlLk6GJQsqaUBKTNV-1" vertex="1">
          <mxGeometry x="70" y="100" width="120" height="60" as="geometry" />
        </mxCell>
        <mxCell id="lKxWZtJTGhWXBgw8AvNS-15" value="" style="edgeStyle=orthogonalEdgeStyle;rounded=1;orthogonalLoop=1;jettySize=auto;html=1;" parent="WIyWlLk6GJQsqaUBKTNV-1" source="lKxWZtJTGhWXBgw8AvNS-12" target="lKxWZtJTGhWXBgw8AvNS-14" edge="1">
          <mxGeometry relative="1" as="geometry" />
        </mxCell>
        <mxCell id="lKxWZtJTGhWXBgw8AvNS-32" value="" style="edgeStyle=orthogonalEdgeStyle;rounded=1;orthogonalLoop=1;jettySize=auto;html=1;" parent="WIyWlLk6GJQsqaUBKTNV-1" source="lKxWZtJTGhWXBgw8AvNS-12" target="lKxWZtJTGhWXBgw8AvNS-31" edge="1">
          <mxGeometry relative="1" as="geometry" />
        </mxCell>
        <mxCell id="lKxWZtJTGhWXBgw8AvNS-45" value="" style="edgeStyle=orthogonalEdgeStyle;rounded=1;orthogonalLoop=1;jettySize=auto;html=1;" parent="WIyWlLk6GJQsqaUBKTNV-1" source="lKxWZtJTGhWXBgw8AvNS-12" target="lKxWZtJTGhWXBgw8AvNS-44" edge="1">
          <mxGeometry relative="1" as="geometry" />
        </mxCell>
        <mxCell id="lKxWZtJTGhWXBgw8AvNS-12" value="Homepage" style="whiteSpace=wrap;html=1;rounded=1;fillColor=#dae8fc;strokeColor=#6c8ebf;" parent="WIyWlLk6GJQsqaUBKTNV-1" vertex="1">
          <mxGeometry x="-110" y="221" width="120" height="60" as="geometry" />
        </mxCell>
        <mxCell id="lKxWZtJTGhWXBgw8AvNS-17" value="" style="edgeStyle=orthogonalEdgeStyle;rounded=1;orthogonalLoop=1;jettySize=auto;html=1;" parent="WIyWlLk6GJQsqaUBKTNV-1" source="lKxWZtJTGhWXBgw8AvNS-14" target="lKxWZtJTGhWXBgw8AvNS-16" edge="1">
          <mxGeometry relative="1" as="geometry" />
        </mxCell>
        <mxCell id="lKxWZtJTGhWXBgw8AvNS-47" style="edgeStyle=orthogonalEdgeStyle;rounded=1;orthogonalLoop=1;jettySize=auto;html=1;entryX=1;entryY=0.5;entryDx=0;entryDy=0;" parent="WIyWlLk6GJQsqaUBKTNV-1" source="lKxWZtJTGhWXBgw8AvNS-14" target="lKxWZtJTGhWXBgw8AvNS-35" edge="1">
          <mxGeometry relative="1" as="geometry">
            <Array as="points">
              <mxPoint x="-50" y="509" />
            </Array>
          </mxGeometry>
        </mxCell>
        <mxCell id="lKxWZtJTGhWXBgw8AvNS-14" value="Input Grades" style="whiteSpace=wrap;html=1;rounded=1;fillColor=#d5e8d4;strokeColor=#82b366;" parent="WIyWlLk6GJQsqaUBKTNV-1" vertex="1">
          <mxGeometry x="-110" y="361" width="120" height="60" as="geometry" />
        </mxCell>
        <mxCell id="lKxWZtJTGhWXBgw8AvNS-16" value="&lt;div&gt;&lt;span style=&quot;background-color: initial;&quot;&gt;English&lt;/span&gt;&lt;br&gt;&lt;/div&gt;&lt;div&gt;Math&lt;/div&gt;&lt;div&gt;Science&lt;/div&gt;&lt;div&gt;Filipino&lt;/div&gt;&lt;div&gt;PE&lt;/div&gt;&lt;div&gt;ESP&lt;/div&gt;&lt;div&gt;&lt;br&gt;&lt;/div&gt;" style="whiteSpace=wrap;html=1;rounded=1;fillColor=#b0e3e6;strokeColor=#0e8088;" parent="WIyWlLk6GJQsqaUBKTNV-1" vertex="1">
          <mxGeometry x="64.5" y="311" width="130" height="160" as="geometry" />
        </mxCell>
        <mxCell id="lKxWZtJTGhWXBgw8AvNS-21" value="" style="edgeStyle=orthogonalEdgeStyle;rounded=1;orthogonalLoop=1;jettySize=auto;html=1;" parent="WIyWlLk6GJQsqaUBKTNV-1" target="lKxWZtJTGhWXBgw8AvNS-20" edge="1">
          <mxGeometry relative="1" as="geometry">
            <mxPoint x="-249.9411764705883" y="609" as="sourcePoint" />
          </mxGeometry>
        </mxCell>
        <mxCell id="lKxWZtJTGhWXBgw8AvNS-23" value="" style="edgeStyle=orthogonalEdgeStyle;rounded=1;orthogonalLoop=1;jettySize=auto;html=1;" parent="WIyWlLk6GJQsqaUBKTNV-1" target="lKxWZtJTGhWXBgw8AvNS-22" edge="1">
          <mxGeometry relative="1" as="geometry">
            <mxPoint x="-249.9411764705883" y="609" as="sourcePoint" />
          </mxGeometry>
        </mxCell>
        <mxCell id="lKxWZtJTGhWXBgw8AvNS-26" value="" style="edgeStyle=orthogonalEdgeStyle;rounded=1;orthogonalLoop=1;jettySize=auto;html=1;" parent="WIyWlLk6GJQsqaUBKTNV-1" target="lKxWZtJTGhWXBgw8AvNS-25" edge="1">
          <mxGeometry relative="1" as="geometry">
            <mxPoint x="-249.9411764705883" y="609" as="sourcePoint" />
          </mxGeometry>
        </mxCell>
        <mxCell id="lKxWZtJTGhWXBgw8AvNS-28" value="" style="edgeStyle=orthogonalEdgeStyle;rounded=1;orthogonalLoop=1;jettySize=auto;html=1;" parent="WIyWlLk6GJQsqaUBKTNV-1" target="lKxWZtJTGhWXBgw8AvNS-27" edge="1">
          <mxGeometry relative="1" as="geometry">
            <mxPoint x="-249.9411764705883" y="609" as="sourcePoint" />
          </mxGeometry>
        </mxCell>
        <mxCell id="lKxWZtJTGhWXBgw8AvNS-20" value="STEM" style="whiteSpace=wrap;html=1;rounded=1;fillColor=#ffe6cc;strokeColor=#d79b00;" parent="WIyWlLk6GJQsqaUBKTNV-1" vertex="1">
          <mxGeometry x="-462" y="694" width="120" height="60" as="geometry" />
        </mxCell>
        <mxCell id="lKxWZtJTGhWXBgw8AvNS-22" value="ABM" style="whiteSpace=wrap;html=1;rounded=1;fillColor=#ffe6cc;strokeColor=#d79b00;" parent="WIyWlLk6GJQsqaUBKTNV-1" vertex="1">
          <mxGeometry x="-164" y="694" width="120" height="60" as="geometry" />
        </mxCell>
        <mxCell id="lKxWZtJTGhWXBgw8AvNS-25" value="HUMSS" style="whiteSpace=wrap;html=1;rounded=1;fillColor=#ffe6cc;strokeColor=#d79b00;" parent="WIyWlLk6GJQsqaUBKTNV-1" vertex="1">
          <mxGeometry x="-390" y="763" width="120" height="60" as="geometry" />
        </mxCell>
        <mxCell id="lKxWZtJTGhWXBgw8AvNS-27" value="TVL" style="whiteSpace=wrap;html=1;rounded=1;fillColor=#ffe6cc;strokeColor=#d79b00;" parent="WIyWlLk6GJQsqaUBKTNV-1" vertex="1">
          <mxGeometry x="-237" y="763" width="120" height="60" as="geometry" />
        </mxCell>
        <mxCell id="lKxWZtJTGhWXBgw8AvNS-29" value="ICT" style="whiteSpace=wrap;html=1;rounded=1;fillColor=#ffe6cc;strokeColor=#d79b00;" parent="WIyWlLk6GJQsqaUBKTNV-1" vertex="1">
          <mxGeometry x="-310" y="836" width="120" height="60" as="geometry" />
        </mxCell>
        <mxCell id="lKxWZtJTGhWXBgw8AvNS-34" value="" style="edgeStyle=orthogonalEdgeStyle;rounded=1;orthogonalLoop=1;jettySize=auto;html=1;" parent="WIyWlLk6GJQsqaUBKTNV-1" source="lKxWZtJTGhWXBgw8AvNS-31" target="lKxWZtJTGhWXBgw8AvNS-33" edge="1">
          <mxGeometry relative="1" as="geometry" />
        </mxCell>
        <mxCell id="lKxWZtJTGhWXBgw8AvNS-31" value="PROFILE" style="whiteSpace=wrap;html=1;rounded=1;fillColor=#dae8fc;strokeColor=#6c8ebf;" parent="WIyWlLk6GJQsqaUBKTNV-1" vertex="1">
          <mxGeometry x="-310" y="221" width="120" height="60" as="geometry" />
        </mxCell>
        <mxCell id="lKxWZtJTGhWXBgw8AvNS-36" value="" style="edgeStyle=orthogonalEdgeStyle;rounded=1;orthogonalLoop=1;jettySize=auto;html=1;" parent="WIyWlLk6GJQsqaUBKTNV-1" source="lKxWZtJTGhWXBgw8AvNS-33" target="lKxWZtJTGhWXBgw8AvNS-35" edge="1">
          <mxGeometry relative="1" as="geometry" />
        </mxCell>
        <mxCell id="lKxWZtJTGhWXBgw8AvNS-33" value="Student Information" style="whiteSpace=wrap;html=1;rounded=1;fillColor=#647687;strokeColor=#314354;fontColor=#ffffff;" parent="WIyWlLk6GJQsqaUBKTNV-1" vertex="1">
          <mxGeometry x="-310" y="361" width="120" height="60" as="geometry" />
        </mxCell>
        <mxCell id="lKxWZtJTGhWXBgw8AvNS-49" style="edgeStyle=orthogonalEdgeStyle;rounded=1;orthogonalLoop=1;jettySize=auto;html=1;" parent="WIyWlLk6GJQsqaUBKTNV-1" source="lKxWZtJTGhWXBgw8AvNS-35" target="lKxWZtJTGhWXBgw8AvNS-29" edge="1">
          <mxGeometry relative="1" as="geometry" />
        </mxCell>
        <mxCell id="lKxWZtJTGhWXBgw8AvNS-35" value="Recommended Strand" style="rounded=1;whiteSpace=wrap;html=1;fillColor=#d0cee2;strokeColor=#56517e;" parent="WIyWlLk6GJQsqaUBKTNV-1" vertex="1">
          <mxGeometry x="-310" y="479" width="120" height="60" as="geometry" />
        </mxCell>
        <mxCell id="lKxWZtJTGhWXBgw8AvNS-37" value="Form" style="text;html=1;align=center;verticalAlign=middle;resizable=0;points=[];autosize=1;strokeColor=none;fillColor=none;rounded=1;" parent="WIyWlLk6GJQsqaUBKTNV-1" vertex="1">
          <mxGeometry x="-50" y="301" width="50" height="30" as="geometry" />
        </mxCell>
        <mxCell id="lKxWZtJTGhWXBgw8AvNS-38" value="Navigation" style="text;html=1;align=center;verticalAlign=middle;resizable=0;points=[];autosize=1;strokeColor=none;fillColor=none;rounded=1;" parent="WIyWlLk6GJQsqaUBKTNV-1" vertex="1">
          <mxGeometry x="-190" y="219" width="80" height="30" as="geometry" />
        </mxCell>
        <mxCell id="lKxWZtJTGhWXBgw8AvNS-44" value="Strand list with Description" style="whiteSpace=wrap;html=1;fillColor=#b0e3e6;strokeColor=#0e8088;rounded=1;" parent="WIyWlLk6GJQsqaUBKTNV-1" vertex="1">
          <mxGeometry x="64.5" y="221" width="131" height="60" as="geometry" />
        </mxCell>
      </root>
    </mxGraphModel>
  </diagram>
</mxfile>
